<svg xmlns="http://www.w3.org/2000/svg" viewBox="0 0 64 64"><g data-name="Digital Clock"><path fill="#ff9478" d="M59,19H5a2,2,0,0,0-2,2V43a2,2,0,0,0,2,2H59a2,2,0,0,0,2-2V21A2,2,0,0,0,59,19ZM58,42H6V22H58Z"/><path fill="#ffeb99" d="M6,22V42H58V22ZM17,32v5a1,1,0,0,1-1,1H12a1,1,0,0,1-1-1V27a1,1,0,0,1,1-1h4a1,1,0,0,1,1,1Zm10,0v5a1,1,0,0,1-1,1H22a1,1,0,0,1-1-1V27a1,1,0,0,1,1-1h4a1,1,0,0,1,1,1Zm16,0v5a1,1,0,0,1-1,1H38a1,1,0,0,1-1-1V27a1,1,0,0,1,1-1h4a1,1,0,0,1,1,1Zm10,0v5a1,1,0,0,1-1,1H48a1,1,0,0,1-1-1V27a1,1,0,0,1,1-1h4a1,1,0,0,1,1,1Z"/><path fill="#ffc477" d="M17 27a1 1 0 0 0-1-1H12a1 1 0 0 0-1 1v5h6zM12 38h4a1 1 0 0 0 1-1V32H11v5A1 1 0 0 0 12 38zM27 27a1 1 0 0 0-1-1H22a1 1 0 0 0-1 1v5h6zM22 38h4a1 1 0 0 0 1-1V32H21v5A1 1 0 0 0 22 38zM43 27a1 1 0 0 0-1-1H38a1 1 0 0 0-1 1v5h6zM38 38h4a1 1 0 0 0 1-1V32H37v5A1 1 0 0 0 38 38zM53 27a1 1 0 0 0-1-1H48a1 1 0 0 0-1 1v5h6zM48 38h4a1 1 0 0 0 1-1V32H47v5A1 1 0 0 0 48 38z"/><rect width="8" height="4" x="10" y="45" fill="#57565c"/><rect width="8" height="4" x="46" y="45" fill="#57565c"/><rect width="4" height="3" x="10" y="16" fill="#ff7956"/><rect width="4" height="3" x="18" y="16" fill="#ff7956"/><path fill="#3e3d42" d="M59,18H23V16a1,1,0,0,0-1-1H18a1,1,0,0,0-1,1v2H15V16a1,1,0,0,0-1-1H10a1,1,0,0,0-1,1v2H5a3,3,0,0,0-3,3V43a3,3,0,0,0,3,3H9v3a1,1,0,0,0,1,1h8a1,1,0,0,0,1-1V46H45v3a1,1,0,0,0,1,1h8a1,1,0,0,0,1-1V46h4a3,3,0,0,0,3-3V21A3,3,0,0,0,59,18ZM19,17h2v1H19Zm-8,0h2v1H11Zm6,31H11V46h6Zm36,0H47V46h6Zm7-5a1,1,0,0,1-1,1H5a1,1,0,0,1-1-1V21a1,1,0,0,1,1-1H59a1,1,0,0,1,1,1Z"/><path fill="#3e3d42" d="M12 39h4a2 2 0 0 0 2-2V27a2 2 0 0 0-2-2H12a2 2 0 0 0-2 2V37A2 2 0 0 0 12 39zm0-2V33h4v4zm0-10h4v4H12zM22 39h4a2 2 0 0 0 2-2V27a2 2 0 0 0-2-2H22a2 2 0 0 0-2 2V37A2 2 0 0 0 22 39zm0-2V33h4v4zm0-10h4v4H22zM38 39h4a2 2 0 0 0 2-2V27a2 2 0 0 0-2-2H38a2 2 0 0 0-2 2V37A2 2 0 0 0 38 39zm0-2V33h4v4zm0-10h4v4H38zM48 39h4a2 2 0 0 0 2-2V27a2 2 0 0 0-2-2H48a2 2 0 0 0-2 2V37A2 2 0 0 0 48 39zm0-2V33h4v4zm0-10h4v4H48z"/><path fill="#3e3d42" d="M58,21H6a1,1,0,0,0-1,1V42a1,1,0,0,0,1,1H58a1,1,0,0,0,1-1V22A1,1,0,0,0,58,21ZM57,41H7V23H57Z"/><path fill="#3e3d42" d="M32 31a1 1 0 0 0 1-1V28a1 1 0 0 0-2 0v2A1 1 0 0 0 32 31zM32 37a1 1 0 0 0 1-1V34a1 1 0 0 0-2 0v2A1 1 0 0 0 32 37z"/></g></svg>